# xmcd
#
# Track frame offsets:
# 225
# 23695
# 53269
# 64972
# 84797
# 105792
# 123748
# 157034
# 170995
# 187552
# 198502
# 210842
#
# Disc length: 3248 seconds
#
#
# Revision: 0
# Processed by: cddbd v1.5.2PL0 Copyright (c) Steve Scherf et al.
# Submitted via: FreeRIP 2.944 
#
DISCID=8e0cad0c
DTITLE=Ayrshire Fiddle Orchestra - New Dawning
DYEAR=2007
DGENRE=Folk
TTITLE0=Cowal Fiddlers' March
TTITLE1=Sunset on St. Pete's
TTITLE2=The Shetland Fisherman's Backstep
TTITLE3=Queen's Welcome to Invercauld
TTITLE4=Lament of the First Generation
TTITLE5=Galway Hornpipe
TTITLE6=Irish Session Tunes II
TTITLE7=Scandanavian Reels
TTITLE8=Calum's Waltz
TTITLE9=Ian Powrie's Compliments
TTITLE10=Anne Fraser Mackenzie
TTITLE11=The New Dawning
EXTD=
EXTT0=
EXTT1=
EXTT2=
EXTT3=
EXTT4=
EXTT5=
EXTT6=
EXTT7=
EXTT8=
EXTT9=
EXTT10=
EXTT11=
PLAYORDER=
